<?xml version="1.0" encoding="UTF-8" standalone="no"?>
<!DOCTYPE svg PUBLIC "-//W3C//DTD SVG 1.1//EN" "http://www.w3.org/Graphics/SVG/1.1/DTD/svg11.dtd">
<svg width="100%" height="100%" viewBox="0 0 2400 2400" version="1.1" xmlns="http://www.w3.org/2000/svg" xmlns:xlink="http://www.w3.org/1999/xlink" xml:space="preserve" xmlns:serif="http://www.serif.com/" style="fill-rule:evenodd;clip-rule:evenodd;stroke-linecap:round;stroke-linejoin:round;stroke-miterlimit:1.5;">
    <g transform="matrix(1,0,0,1,0,20.5056)">
        <g transform="matrix(1.47273,0,0,1.47273,-441.632,-1588.5)">
            <path d="M1114.68,1288.18L1114.68,1131.27" style="fill:none;stroke:black;stroke-width:5.66px;"/>
        </g>
        <g transform="matrix(1.42646,-0.366254,0.366254,1.42646,-1079.51,-1093.15)">
            <path d="M1114.68,1288.18L1114.68,1131.27" style="fill:none;stroke:black;stroke-width:5.66px;"/>
        </g>
        <g transform="matrix(1.29057,-0.709495,0.709495,1.29057,-1574.17,-454.722)">
            <path d="M1114.68,1288.18L1114.68,1131.27" style="fill:none;stroke:black;stroke-width:5.66px;"/>
        </g>
        <g transform="matrix(1.07358,-1.00816,1.00816,1.07358,-1894.51,286.662)">
            <path d="M1114.68,1288.18L1114.68,1131.27" style="fill:none;stroke:black;stroke-width:5.66px;"/>
        </g>
        <g transform="matrix(0.78913,-1.24347,1.24347,0.78913,-2020.41,1084.42)">
            <path d="M1114.68,1288.18L1114.68,1131.27" style="fill:none;stroke:black;stroke-width:5.66px;"/>
        </g>
        <g transform="matrix(0.4551,-1.40065,1.40065,0.4551,-1943.97,1888.42)">
            <path d="M1114.68,1288.18L1114.68,1131.27" style="fill:none;stroke:black;stroke-width:5.66px;"/>
        </g>
        <g transform="matrix(0.0924737,-1.46983,1.46983,0.0924737,-1669.98,2648.16)">
            <path d="M1114.68,1288.18L1114.68,1131.27" style="fill:none;stroke:black;stroke-width:5.66px;"/>
        </g>
        <g transform="matrix(-0.275963,-1.44665,1.44665,-0.275963,-1215.65,3315.89)">
            <path d="M1114.68,1288.18L1114.68,1131.27" style="fill:none;stroke:black;stroke-width:5.66px;"/>
        </g>
        <g transform="matrix(-0.627059,-1.33257,1.33257,-0.627059,-609.547,3849.65)">
            <path d="M1114.68,1288.18L1114.68,1131.27" style="fill:none;stroke:black;stroke-width:5.66px;"/>
        </g>
        <g transform="matrix(-0.938756,-1.13476,1.13476,-0.938756,110.259,4215.91)">
            <path d="M1114.68,1288.18L1114.68,1131.27" style="fill:none;stroke:black;stroke-width:5.66px;"/>
        </g>
        <g transform="matrix(-1.19147,-0.865651,0.865651,-1.19147,898.537,4391.66)">
            <path d="M1114.68,1288.18L1114.68,1131.27" style="fill:none;stroke:black;stroke-width:5.66px;"/>
        </g>
        <g transform="matrix(-1.36931,-0.542149,0.542149,-1.36931,1705.76,4365.85)">
            <path d="M1114.68,1288.18L1114.68,1131.27" style="fill:none;stroke:black;stroke-width:5.66px;"/>
        </g>
        <g transform="matrix(-1.46112,-0.184582,0.184582,-1.46112,2481.2,4140.1)">
            <path d="M1114.68,1288.18L1114.68,1131.27" style="fill:none;stroke:black;stroke-width:5.66px;"/>
        </g>
        <g transform="matrix(-1.46112,0.184582,-0.184582,-1.46112,3176.13,3728.6)">
            <path d="M1114.68,1288.18L1114.68,1131.27" style="fill:none;stroke:black;stroke-width:5.66px;"/>
        </g>
        <g transform="matrix(-1.36931,0.542149,-0.542149,-1.36931,3746.9,3157.21)">
            <path d="M1114.68,1288.18L1114.68,1131.27" style="fill:none;stroke:black;stroke-width:5.66px;"/>
        </g>
        <g transform="matrix(-1.19147,0.865651,-0.865651,-1.19147,4157.64,2461.82)">
            <path d="M1114.68,1288.18L1114.68,1131.27" style="fill:none;stroke:black;stroke-width:5.66px;"/>
        </g>
        <g transform="matrix(-0.938756,1.13476,-1.13476,-0.938756,4382.53,1686.13)">
            <path d="M1114.68,1288.18L1114.68,1131.27" style="fill:none;stroke:black;stroke-width:5.66px;"/>
        </g>
        <g transform="matrix(-0.627059,1.33257,-1.33257,-0.627059,4407.46,878.885)">
            <path d="M1114.68,1288.18L1114.68,1131.27" style="fill:none;stroke:black;stroke-width:5.66px;"/>
        </g>
        <g transform="matrix(-0.275963,1.44665,-1.44665,-0.275963,4230.85,90.8011)">
            <path d="M1114.68,1288.18L1114.68,1131.27" style="fill:none;stroke:black;stroke-width:5.66px;"/>
        </g>
        <g transform="matrix(0.0924737,1.46983,-1.46983,0.0924737,3863.8,-628.603)">
            <path d="M1114.68,1288.18L1114.68,1131.27" style="fill:none;stroke:black;stroke-width:5.66px;"/>
        </g>
        <g transform="matrix(0.4551,1.40065,-1.40065,0.4551,3329.37,-1234.12)">
            <path d="M1114.68,1288.18L1114.68,1131.27" style="fill:none;stroke:black;stroke-width:5.66px;"/>
        </g>
        <g transform="matrix(0.78913,1.24347,-1.24347,0.78913,2661.14,-1687.71)">
            <path d="M1114.68,1288.18L1114.68,1131.27" style="fill:none;stroke:black;stroke-width:5.66px;"/>
        </g>
        <g transform="matrix(1.07358,1.00816,-1.00816,1.07358,1901.11,-1960.87)">
            <path d="M1114.68,1288.18L1114.68,1131.27" style="fill:none;stroke:black;stroke-width:5.66px;"/>
        </g>
        <g transform="matrix(1.29057,0.709495,-0.709495,1.29057,1097.02,-2036.43)">
            <path d="M1114.68,1288.18L1114.68,1131.27" style="fill:none;stroke:black;stroke-width:5.66px;"/>
        </g>
        <g transform="matrix(1.42646,0.366254,-0.366254,1.42646,299.399,-1909.66)">
            <path d="M1114.68,1288.18L1114.68,1131.27" style="fill:none;stroke:black;stroke-width:5.66px;"/>
        </g>
    </g>
</svg>
