<?xml version="1.0" encoding="UTF-8" standalone="no"?>
<!DOCTYPE svg PUBLIC "-//W3C//DTD SVG 1.1//EN" "http://www.w3.org/Graphics/SVG/1.1/DTD/svg11.dtd">
<svg width="100%" height="100%" viewBox="0 0 3000 3000" version="1.1" xmlns="http://www.w3.org/2000/svg" xmlns:xlink="http://www.w3.org/1999/xlink" xml:space="preserve" xmlns:serif="http://www.serif.com/" style="fill-rule:evenodd;clip-rule:evenodd;stroke-linejoin:round;stroke-miterlimit:2;">
    <g transform="matrix(1.07841,0,0,0.826592,297.918,-429.598)">
        <path d="M1122.4,1288.18C1122.4,1293.75 1118.94,1298.27 1114.68,1298.27C1110.41,1298.27 1106.95,1293.75 1106.95,1288.18L1106.95,1131.27C1106.95,1125.7 1110.41,1121.19 1114.68,1121.19C1118.94,1121.19 1122.4,1125.7 1122.4,1131.27L1122.4,1288.18Z" style="stroke:white;stroke-width:6.51px;"/>
    </g>
    <g transform="matrix(1.05769,-0.210388,0.16126,0.810709,-57.0749,-157.821)">
        <path d="M1122.4,1288.18C1122.4,1293.75 1118.94,1298.27 1114.68,1298.27C1110.41,1298.27 1106.95,1293.75 1106.95,1288.18L1106.95,1131.27C1106.95,1125.7 1110.41,1121.19 1114.68,1121.19C1118.94,1121.19 1122.4,1125.7 1122.4,1131.27L1122.4,1288.18Z" style="stroke:white;stroke-width:6.51px;"/>
    </g>
    <g transform="matrix(0.996325,-0.412691,0.316323,0.763671,-352.225,177.99)">
        <path d="M1122.4,1288.18C1122.4,1293.75 1118.94,1298.27 1114.68,1298.27C1110.41,1298.27 1106.95,1293.75 1106.95,1288.18L1106.95,1131.27C1106.95,1125.7 1110.41,1121.19 1114.68,1121.19C1118.94,1121.19 1122.4,1125.7 1122.4,1131.27L1122.4,1288.18Z" style="stroke:white;stroke-width:6.51px;"/>
    </g>
    <g transform="matrix(0.896669,-0.599135,0.45923,0.687286,-576.191,564.929)">
        <path d="M1122.4,1288.18C1122.4,1293.75 1118.94,1298.27 1114.68,1298.27C1110.41,1298.27 1106.95,1293.75 1106.95,1288.18L1106.95,1131.27C1106.95,1125.7 1110.41,1121.19 1114.68,1121.19C1118.94,1121.19 1122.4,1125.7 1122.4,1131.27L1122.4,1288.18Z" style="stroke:white;stroke-width:6.51px;"/>
    </g>
    <g transform="matrix(0.762554,-0.762554,0.584489,0.584489,-720.365,988.126)">
        <path d="M1122.4,1288.18C1122.4,1293.75 1118.94,1298.27 1114.68,1298.27C1110.41,1298.27 1106.95,1293.75 1106.95,1288.18L1106.95,1131.27C1106.95,1125.7 1110.41,1121.19 1114.68,1121.19C1118.94,1121.19 1122.4,1125.7 1122.4,1131.27L1122.4,1288.18Z" style="stroke:white;stroke-width:6.51px;"/>
    </g>
    <g transform="matrix(0.599135,-0.896669,0.687286,0.45923,-779.207,1431.32)">
        <path d="M1122.4,1288.18C1122.4,1293.75 1118.94,1298.27 1114.68,1298.27C1110.41,1298.27 1106.95,1293.75 1106.95,1288.18L1106.95,1131.27C1106.95,1125.7 1110.41,1121.19 1114.68,1121.19C1118.94,1121.19 1122.4,1125.7 1122.4,1131.27L1122.4,1288.18Z" style="stroke:white;stroke-width:6.51px;"/>
    </g>
    <g transform="matrix(0.412691,-0.996325,0.763671,0.316323,-750.456,1877.48)">
        <path d="M1122.4,1288.18C1122.4,1293.75 1118.94,1298.27 1114.68,1298.27C1110.41,1298.27 1106.95,1293.75 1106.95,1288.18L1106.95,1131.27C1106.95,1125.7 1110.41,1121.19 1114.68,1121.19C1118.94,1121.19 1122.4,1125.7 1122.4,1131.27L1122.4,1288.18Z" style="stroke:white;stroke-width:6.51px;"/>
    </g>
    <g transform="matrix(0.210388,-1.05769,0.810709,0.16126,-635.217,2309.45)">
        <path d="M1122.4,1288.18C1122.4,1293.75 1118.94,1298.27 1114.68,1298.27C1110.41,1298.27 1106.95,1293.75 1106.95,1288.18L1106.95,1131.27C1106.95,1125.7 1110.41,1121.19 1114.68,1121.19C1118.94,1121.19 1122.4,1125.7 1122.4,1131.27L1122.4,1288.18Z" style="stroke:white;stroke-width:6.51px;"/>
    </g>
    <g transform="matrix(-2.77556e-17,-1.07841,0.826592,1.38778e-16,-437.917,2710.64)">
        <path d="M1122.4,1288.18C1122.4,1293.75 1118.94,1298.27 1114.68,1298.27C1110.41,1298.27 1106.95,1293.75 1106.95,1288.18L1106.95,1131.27C1106.95,1125.7 1110.41,1121.19 1114.68,1121.19C1118.94,1121.19 1122.4,1125.7 1122.4,1131.27L1122.4,1288.18Z" style="stroke:white;stroke-width:6.51px;"/>
    </g>
    <g transform="matrix(-0.210388,-1.05769,0.810709,-0.16126,-166.14,3065.64)">
        <path d="M1122.4,1288.18C1122.4,1293.75 1118.94,1298.27 1114.68,1298.27C1110.41,1298.27 1106.95,1293.75 1106.95,1288.18L1106.95,1131.27C1106.95,1125.7 1110.41,1121.19 1114.68,1121.19C1118.94,1121.19 1122.4,1125.7 1122.4,1131.27L1122.4,1288.18Z" style="stroke:white;stroke-width:6.51px;"/>
    </g>
    <g transform="matrix(-0.412691,-0.996325,0.763671,-0.316323,169.67,3360.79)">
        <path d="M1122.4,1288.18C1122.4,1293.75 1118.94,1298.27 1114.68,1298.27C1110.41,1298.27 1106.95,1293.75 1106.95,1288.18L1106.95,1131.27C1106.95,1125.7 1110.41,1121.19 1114.68,1121.19C1118.94,1121.19 1122.4,1125.7 1122.4,1131.27L1122.4,1288.18Z" style="stroke:white;stroke-width:6.51px;"/>
    </g>
    <g transform="matrix(-0.599135,-0.896669,0.687286,-0.45923,556.609,3584.75)">
        <path d="M1122.4,1288.18C1122.4,1293.75 1118.94,1298.27 1114.68,1298.27C1110.41,1298.27 1106.95,1293.75 1106.95,1288.18L1106.95,1131.27C1106.95,1125.7 1110.41,1121.19 1114.68,1121.19C1118.94,1121.19 1122.4,1125.7 1122.4,1131.27L1122.4,1288.18Z" style="stroke:white;stroke-width:6.51px;"/>
    </g>
    <g transform="matrix(-0.762554,-0.762554,0.584489,-0.584489,979.807,3728.93)">
        <path d="M1122.4,1288.18C1122.4,1293.75 1118.94,1298.27 1114.68,1298.27C1110.41,1298.27 1106.95,1293.75 1106.95,1288.18L1106.95,1131.27C1106.95,1125.7 1110.41,1121.19 1114.68,1121.19C1118.94,1121.19 1122.4,1125.7 1122.4,1131.27L1122.4,1288.18Z" style="stroke:white;stroke-width:6.51px;"/>
    </g>
    <g transform="matrix(-0.896669,-0.599135,0.45923,-0.687286,1423,3787.77)">
        <path d="M1122.4,1288.18C1122.4,1293.75 1118.94,1298.27 1114.68,1298.27C1110.41,1298.27 1106.95,1293.75 1106.95,1288.18L1106.95,1131.27C1106.95,1125.7 1110.41,1121.19 1114.68,1121.19C1118.94,1121.19 1122.4,1125.7 1122.4,1131.27L1122.4,1288.18Z" style="stroke:white;stroke-width:6.51px;"/>
    </g>
    <g transform="matrix(-0.996325,-0.412691,0.316323,-0.763671,1869.16,3759.02)">
        <path d="M1122.4,1288.18C1122.4,1293.75 1118.94,1298.27 1114.68,1298.27C1110.41,1298.27 1106.95,1293.75 1106.95,1288.18L1106.95,1131.27C1106.95,1125.7 1110.41,1121.19 1114.68,1121.19C1118.94,1121.19 1122.4,1125.7 1122.4,1131.27L1122.4,1288.18Z" style="stroke:white;stroke-width:6.51px;"/>
    </g>
    <g transform="matrix(-1.05769,-0.210388,0.16126,-0.810709,2301.13,3643.78)">
        <path d="M1122.4,1288.18C1122.4,1293.75 1118.94,1298.27 1114.68,1298.27C1110.41,1298.27 1106.95,1293.75 1106.95,1288.18L1106.95,1131.27C1106.95,1125.7 1110.41,1121.19 1114.68,1121.19C1118.94,1121.19 1122.4,1125.7 1122.4,1131.27L1122.4,1288.18Z" style="stroke:white;stroke-width:6.51px;"/>
    </g>
    <g transform="matrix(-1.07841,-1.11022e-16,1.94289e-16,-0.826592,2702.32,3446.48)">
        <path d="M1122.4,1288.18C1122.4,1293.75 1118.94,1298.27 1114.68,1298.27C1110.41,1298.27 1106.95,1293.75 1106.95,1288.18L1106.95,1131.27C1106.95,1125.7 1110.41,1121.19 1114.68,1121.19C1118.94,1121.19 1122.4,1125.7 1122.4,1131.27L1122.4,1288.18Z" style="stroke:white;stroke-width:6.51px;"/>
    </g>
    <g transform="matrix(-1.05769,0.210388,-0.16126,-0.810709,3057.32,3174.7)">
        <path d="M1122.4,1288.18C1122.4,1293.75 1118.94,1298.27 1114.68,1298.27C1110.41,1298.27 1106.95,1293.75 1106.95,1288.18L1106.95,1131.27C1106.95,1125.7 1110.41,1121.19 1114.68,1121.19C1118.94,1121.19 1122.4,1125.7 1122.4,1131.27L1122.4,1288.18Z" style="stroke:white;stroke-width:6.51px;"/>
    </g>
    <g transform="matrix(-0.996325,0.412691,-0.316323,-0.763671,3352.47,2838.89)">
        <path d="M1122.4,1288.18C1122.4,1293.75 1118.94,1298.27 1114.68,1298.27C1110.41,1298.27 1106.95,1293.75 1106.95,1288.18L1106.95,1131.27C1106.95,1125.7 1110.41,1121.19 1114.68,1121.19C1118.94,1121.19 1122.4,1125.7 1122.4,1131.27L1122.4,1288.18Z" style="stroke:white;stroke-width:6.51px;"/>
    </g>
    <g transform="matrix(-0.896669,0.599135,-0.45923,-0.687286,3576.43,2451.95)">
        <path d="M1122.4,1288.18C1122.4,1293.75 1118.94,1298.27 1114.68,1298.27C1110.41,1298.27 1106.95,1293.75 1106.95,1288.18L1106.95,1131.27C1106.95,1125.7 1110.41,1121.19 1114.68,1121.19C1118.94,1121.19 1122.4,1125.7 1122.4,1131.27L1122.4,1288.18Z" style="stroke:white;stroke-width:6.51px;"/>
    </g>
    <g transform="matrix(-0.762554,0.762554,-0.584489,-0.584489,3720.61,2028.75)">
        <path d="M1122.4,1288.18C1122.4,1293.75 1118.94,1298.27 1114.68,1298.27C1110.41,1298.27 1106.95,1293.75 1106.95,1288.18L1106.95,1131.27C1106.95,1125.7 1110.41,1121.19 1114.68,1121.19C1118.94,1121.19 1122.4,1125.7 1122.4,1131.27L1122.4,1288.18Z" style="stroke:white;stroke-width:6.51px;"/>
    </g>
    <g transform="matrix(-0.599135,0.896669,-0.687286,-0.45923,3779.45,1585.56)">
        <path d="M1122.4,1288.18C1122.4,1293.75 1118.94,1298.27 1114.68,1298.27C1110.41,1298.27 1106.95,1293.75 1106.95,1288.18L1106.95,1131.27C1106.95,1125.7 1110.41,1121.19 1114.68,1121.19C1118.94,1121.19 1122.4,1125.7 1122.4,1131.27L1122.4,1288.18Z" style="stroke:white;stroke-width:6.51px;"/>
    </g>
    <g transform="matrix(-0.412691,0.996325,-0.763671,-0.316323,3750.7,1139.4)">
        <path d="M1122.4,1288.18C1122.4,1293.75 1118.94,1298.27 1114.68,1298.27C1110.41,1298.27 1106.95,1293.75 1106.95,1288.18L1106.95,1131.27C1106.95,1125.7 1110.41,1121.19 1114.68,1121.19C1118.94,1121.19 1122.4,1125.7 1122.4,1131.27L1122.4,1288.18Z" style="stroke:white;stroke-width:6.51px;"/>
    </g>
    <g transform="matrix(-0.210388,1.05769,-0.810709,-0.16126,3635.46,707.429)">
        <path d="M1122.4,1288.18C1122.4,1293.75 1118.94,1298.27 1114.68,1298.27C1110.41,1298.27 1106.95,1293.75 1106.95,1288.18L1106.95,1131.27C1106.95,1125.7 1110.41,1121.19 1114.68,1121.19C1118.94,1121.19 1122.4,1125.7 1122.4,1131.27L1122.4,1288.18Z" style="stroke:white;stroke-width:6.51px;"/>
    </g>
    <g transform="matrix(-2.22045e-16,1.07841,-0.826592,-3.05311e-16,3438.16,306.237)">
        <path d="M1122.4,1288.18C1122.4,1293.75 1118.94,1298.27 1114.68,1298.27C1110.41,1298.27 1106.95,1293.75 1106.95,1288.18L1106.95,1131.27C1106.95,1125.7 1110.41,1121.19 1114.68,1121.19C1118.94,1121.19 1122.4,1125.7 1122.4,1131.27L1122.4,1288.18Z" style="stroke:white;stroke-width:6.51px;"/>
    </g>
    <g transform="matrix(0.210388,1.05769,-0.810709,0.16126,3166.38,-48.7555)">
        <path d="M1122.4,1288.18C1122.4,1293.75 1118.94,1298.27 1114.68,1298.27C1110.41,1298.27 1106.95,1293.75 1106.95,1288.18L1106.95,1131.27C1106.95,1125.7 1110.41,1121.19 1114.68,1121.19C1118.94,1121.19 1122.4,1125.7 1122.4,1131.27L1122.4,1288.18Z" style="stroke:white;stroke-width:6.51px;"/>
    </g>
    <g transform="matrix(0.412691,0.996325,-0.763671,0.316323,2830.57,-343.906)">
        <path d="M1122.4,1288.18C1122.4,1293.75 1118.94,1298.27 1114.68,1298.27C1110.41,1298.27 1106.95,1293.75 1106.95,1288.18L1106.95,1131.27C1106.95,1125.7 1110.41,1121.19 1114.68,1121.19C1118.94,1121.19 1122.4,1125.7 1122.4,1131.27L1122.4,1288.18Z" style="stroke:white;stroke-width:6.51px;"/>
    </g>
    <g transform="matrix(0.599135,0.896669,-0.687286,0.45923,2443.63,-567.872)">
        <path d="M1122.4,1288.18C1122.4,1293.75 1118.94,1298.27 1114.68,1298.27C1110.41,1298.27 1106.95,1293.75 1106.95,1288.18L1106.95,1131.27C1106.95,1125.7 1110.41,1121.19 1114.68,1121.19C1118.94,1121.19 1122.4,1125.7 1122.4,1131.27L1122.4,1288.18Z" style="stroke:white;stroke-width:6.51px;"/>
    </g>
    <g transform="matrix(0.762554,0.762554,-0.584489,0.584489,2020.43,-712.046)">
        <path d="M1122.4,1288.18C1122.4,1293.75 1118.94,1298.27 1114.68,1298.27C1110.41,1298.27 1106.95,1293.75 1106.95,1288.18L1106.95,1131.27C1106.95,1125.7 1110.41,1121.19 1114.68,1121.19C1118.94,1121.19 1122.4,1125.7 1122.4,1131.27L1122.4,1288.18Z" style="stroke:white;stroke-width:6.51px;"/>
    </g>
    <g transform="matrix(0.896669,0.599135,-0.45923,0.687286,1577.24,-770.888)">
        <path d="M1122.4,1288.18C1122.4,1293.75 1118.94,1298.27 1114.68,1298.27C1110.41,1298.27 1106.95,1293.75 1106.95,1288.18L1106.95,1131.27C1106.95,1125.7 1110.41,1121.19 1114.68,1121.19C1118.94,1121.19 1122.4,1125.7 1122.4,1131.27L1122.4,1288.18Z" style="stroke:white;stroke-width:6.51px;"/>
    </g>
    <g transform="matrix(0.996325,0.412691,-0.316323,0.763671,1131.08,-742.137)">
        <path d="M1122.4,1288.18C1122.4,1293.75 1118.94,1298.27 1114.68,1298.27C1110.41,1298.27 1106.95,1293.75 1106.95,1288.18L1106.95,1131.27C1106.95,1125.7 1110.41,1121.19 1114.68,1121.19C1118.94,1121.19 1122.4,1125.7 1122.4,1131.27L1122.4,1288.18Z" style="stroke:white;stroke-width:6.51px;"/>
    </g>
    <g transform="matrix(1.05769,0.210388,-0.16126,0.810709,699.11,-626.897)">
        <path d="M1122.4,1288.18C1122.4,1293.75 1118.94,1298.27 1114.68,1298.27C1110.41,1298.27 1106.95,1293.75 1106.95,1288.18L1106.95,1131.27C1106.95,1125.7 1110.41,1121.19 1114.68,1121.19C1118.94,1121.19 1122.4,1125.7 1122.4,1131.27L1122.4,1288.18Z" style="stroke:white;stroke-width:6.51px;"/>
    </g>
    <g transform="matrix(1.36892,0,0,1.36892,-547.942,-246.925)">
        <circle cx="1496.06" cy="677.973" r="6.165" style="stroke:white;stroke-width:4.57px;stroke-linecap:round;stroke-linejoin:miter;stroke-miterlimit:1.5;"/>
    </g>
    <g transform="matrix(1.34262,-0.267063,0.267063,1.34262,-851.043,186.361)">
        <circle cx="1496.06" cy="677.973" r="6.165" style="stroke:white;stroke-width:4.57px;stroke-linecap:round;stroke-linejoin:miter;stroke-miterlimit:1.5;"/>
    </g>
    <g transform="matrix(1.26472,-0.523863,0.523863,1.26472,-1063.79,670.454)">
        <circle cx="1496.06" cy="677.973" r="6.165" style="stroke:white;stroke-width:4.57px;stroke-linecap:round;stroke-linejoin:miter;stroke-miterlimit:1.5;"/>
    </g>
    <g transform="matrix(1.13822,-0.760531,0.760531,1.13822,-1178.01,1186.75)">
        <circle cx="1496.06" cy="677.973" r="6.165" style="stroke:white;stroke-width:4.57px;stroke-linecap:round;stroke-linejoin:miter;stroke-miterlimit:1.5;"/>
    </g>
    <g transform="matrix(0.967973,-0.967973,0.967973,0.967973,-1189.31,1715.41)">
        <circle cx="1496.06" cy="677.973" r="6.165" style="stroke:white;stroke-width:4.57px;stroke-linecap:round;stroke-linejoin:miter;stroke-miterlimit:1.5;"/>
    </g>
    <g transform="matrix(0.760531,-1.13822,1.13822,0.760531,-1097.25,2236.11)">
        <circle cx="1496.06" cy="677.973" r="6.165" style="stroke:white;stroke-width:4.57px;stroke-linecap:round;stroke-linejoin:miter;stroke-miterlimit:1.5;"/>
    </g>
    <g transform="matrix(0.523863,-1.26472,1.26472,0.523863,-905.385,2728.85)">
        <circle cx="1496.06" cy="677.973" r="6.165" style="stroke:white;stroke-width:4.57px;stroke-linecap:round;stroke-linejoin:miter;stroke-miterlimit:1.5;"/>
    </g>
    <g transform="matrix(0.267063,-1.34262,1.34262,0.267063,-621.073,3174.69)">
        <circle cx="1496.06" cy="677.973" r="6.165" style="stroke:white;stroke-width:4.57px;stroke-linecap:round;stroke-linejoin:miter;stroke-miterlimit:1.5;"/>
    </g>
    <g transform="matrix(2.22045e-16,-1.36892,1.36892,2.22045e-16,-255.244,3556.5)">
        <circle cx="1496.06" cy="677.973" r="6.165" style="stroke:white;stroke-width:4.57px;stroke-linecap:round;stroke-linejoin:miter;stroke-miterlimit:1.5;"/>
    </g>
    <g transform="matrix(-0.267063,-1.34262,1.34262,-0.267063,178.042,3859.6)">
        <circle cx="1496.06" cy="677.973" r="6.165" style="stroke:white;stroke-width:4.57px;stroke-linecap:round;stroke-linejoin:miter;stroke-miterlimit:1.5;"/>
    </g>
    <g transform="matrix(-0.523863,-1.26472,1.26472,-0.523863,662.134,4072.35)">
        <circle cx="1496.06" cy="677.973" r="6.165" style="stroke:white;stroke-width:4.57px;stroke-linecap:round;stroke-linejoin:miter;stroke-miterlimit:1.5;"/>
    </g>
    <g transform="matrix(-0.760531,-1.13822,1.13822,-0.760531,1178.43,4186.57)">
        <circle cx="1496.06" cy="677.973" r="6.165" style="stroke:white;stroke-width:4.57px;stroke-linecap:round;stroke-linejoin:miter;stroke-miterlimit:1.5;"/>
    </g>
    <g transform="matrix(-0.967973,-0.967973,0.967973,-0.967973,1707.09,4197.87)">
        <circle cx="1496.06" cy="677.973" r="6.165" style="stroke:white;stroke-width:4.57px;stroke-linecap:round;stroke-linejoin:miter;stroke-miterlimit:1.5;"/>
    </g>
    <g transform="matrix(-1.13822,-0.760531,0.760531,-1.13822,2227.79,4105.82)">
        <circle cx="1496.06" cy="677.973" r="6.165" style="stroke:white;stroke-width:4.57px;stroke-linecap:round;stroke-linejoin:miter;stroke-miterlimit:1.5;"/>
    </g>
    <g transform="matrix(-1.26472,-0.523863,0.523863,-1.26472,2720.53,3913.95)">
        <circle cx="1496.06" cy="677.973" r="6.165" style="stroke:white;stroke-width:4.57px;stroke-linecap:round;stroke-linejoin:miter;stroke-miterlimit:1.5;"/>
    </g>
    <g transform="matrix(-1.34262,-0.267063,0.267063,-1.34262,3166.38,3629.63)">
        <circle cx="1496.06" cy="677.973" r="6.165" style="stroke:white;stroke-width:4.57px;stroke-linecap:round;stroke-linejoin:miter;stroke-miterlimit:1.5;"/>
    </g>
    <g transform="matrix(-1.36892,-3.88578e-16,3.88578e-16,-1.36892,3548.18,3263.81)">
        <circle cx="1496.06" cy="677.973" r="6.165" style="stroke:white;stroke-width:4.57px;stroke-linecap:round;stroke-linejoin:miter;stroke-miterlimit:1.5;"/>
    </g>
    <g transform="matrix(-1.34262,0.267063,-0.267063,-1.34262,3851.28,2830.52)">
        <circle cx="1496.06" cy="677.973" r="6.165" style="stroke:white;stroke-width:4.57px;stroke-linecap:round;stroke-linejoin:miter;stroke-miterlimit:1.5;"/>
    </g>
    <g transform="matrix(-1.26472,0.523863,-0.523863,-1.26472,4064.03,2346.43)">
        <circle cx="1496.06" cy="677.973" r="6.165" style="stroke:white;stroke-width:4.57px;stroke-linecap:round;stroke-linejoin:miter;stroke-miterlimit:1.5;"/>
    </g>
    <g transform="matrix(-1.13822,0.760531,-0.760531,-1.13822,4178.25,1830.13)">
        <circle cx="1496.06" cy="677.973" r="6.165" style="stroke:white;stroke-width:4.57px;stroke-linecap:round;stroke-linejoin:miter;stroke-miterlimit:1.5;"/>
    </g>
    <g transform="matrix(-0.967973,0.967973,-0.967973,-0.967973,4189.55,1301.47)">
        <circle cx="1496.06" cy="677.973" r="6.165" style="stroke:white;stroke-width:4.57px;stroke-linecap:round;stroke-linejoin:miter;stroke-miterlimit:1.5;"/>
    </g>
    <g transform="matrix(-0.760531,1.13822,-1.13822,-0.760531,4097.5,780.767)">
        <circle cx="1496.06" cy="677.973" r="6.165" style="stroke:white;stroke-width:4.57px;stroke-linecap:round;stroke-linejoin:miter;stroke-miterlimit:1.5;"/>
    </g>
    <g transform="matrix(-0.523863,1.26472,-1.26472,-0.523863,3905.63,288.026)">
        <circle cx="1496.06" cy="677.973" r="6.165" style="stroke:white;stroke-width:4.57px;stroke-linecap:round;stroke-linejoin:miter;stroke-miterlimit:1.5;"/>
    </g>
    <g transform="matrix(-0.267063,1.34262,-1.34262,-0.267063,3621.31,-157.815)">
        <circle cx="1496.06" cy="677.973" r="6.165" style="stroke:white;stroke-width:4.57px;stroke-linecap:round;stroke-linejoin:miter;stroke-miterlimit:1.5;"/>
    </g>
    <g transform="matrix(-6.10623e-16,1.36892,-1.36892,-6.10623e-16,3255.49,-539.622)">
        <circle cx="1496.06" cy="677.973" r="6.165" style="stroke:white;stroke-width:4.57px;stroke-linecap:round;stroke-linejoin:miter;stroke-miterlimit:1.5;"/>
    </g>
    <g transform="matrix(0.267063,1.34262,-1.34262,0.267063,2822.2,-842.724)">
        <circle cx="1496.06" cy="677.973" r="6.165" style="stroke:white;stroke-width:4.57px;stroke-linecap:round;stroke-linejoin:miter;stroke-miterlimit:1.5;"/>
    </g>
    <g transform="matrix(0.523863,1.26472,-1.26472,0.523863,2338.11,-1055.47)">
        <circle cx="1496.06" cy="677.973" r="6.165" style="stroke:white;stroke-width:4.57px;stroke-linecap:round;stroke-linejoin:miter;stroke-miterlimit:1.5;"/>
    </g>
    <g transform="matrix(0.760531,1.13822,-1.13822,0.760531,1821.81,-1169.69)">
        <circle cx="1496.06" cy="677.973" r="6.165" style="stroke:white;stroke-width:4.57px;stroke-linecap:round;stroke-linejoin:miter;stroke-miterlimit:1.5;"/>
    </g>
    <g transform="matrix(0.967973,0.967973,-0.967973,0.967973,1293.15,-1180.99)">
        <circle cx="1496.06" cy="677.973" r="6.165" style="stroke:white;stroke-width:4.57px;stroke-linecap:round;stroke-linejoin:miter;stroke-miterlimit:1.5;"/>
    </g>
    <g transform="matrix(1.13822,0.760531,-0.760531,1.13822,772.448,-1088.94)">
        <circle cx="1496.06" cy="677.973" r="6.165" style="stroke:white;stroke-width:4.57px;stroke-linecap:round;stroke-linejoin:miter;stroke-miterlimit:1.5;"/>
    </g>
    <g transform="matrix(1.26472,0.523863,-0.523863,1.26472,279.707,-897.065)">
        <circle cx="1496.06" cy="677.973" r="6.165" style="stroke:white;stroke-width:4.57px;stroke-linecap:round;stroke-linejoin:miter;stroke-miterlimit:1.5;"/>
    </g>
    <g transform="matrix(1.34262,0.267063,-0.267063,1.34262,-166.134,-612.753)">
        <circle cx="1496.06" cy="677.973" r="6.165" style="stroke:white;stroke-width:4.57px;stroke-linecap:round;stroke-linejoin:miter;stroke-miterlimit:1.5;"/>
    </g>
    <g transform="matrix(1.36892,0,0,1.36892,-547.858,-470.091)">
        <circle cx="1496.06" cy="677.973" r="6.165" style="stroke:white;stroke-width:4.57px;stroke-linecap:round;stroke-linejoin:miter;stroke-miterlimit:1.5;"/>
    </g>
    <g transform="matrix(1.34262,-0.267063,0.267063,1.34262,-894.499,-32.5329)">
        <circle cx="1496.06" cy="677.973" r="6.165" style="stroke:white;stroke-width:4.57px;stroke-linecap:round;stroke-linejoin:miter;stroke-miterlimit:1.5;"/>
    </g>
    <g transform="matrix(1.26472,-0.523863,0.523863,1.26472,-1149.12,464.244)">
        <circle cx="1496.06" cy="677.973" r="6.165" style="stroke:white;stroke-width:4.57px;stroke-linecap:round;stroke-linejoin:miter;stroke-miterlimit:1.5;"/>
    </g>
    <g transform="matrix(1.13822,-0.760531,0.760531,1.13822,-1301.92,1001.15)">
        <circle cx="1496.06" cy="677.973" r="6.165" style="stroke:white;stroke-width:4.57px;stroke-linecap:round;stroke-linejoin:miter;stroke-miterlimit:1.5;"/>
    </g>
    <g transform="matrix(0.967973,-0.967973,0.967973,0.967973,-1347.05,1557.55)">
        <circle cx="1496.06" cy="677.973" r="6.165" style="stroke:white;stroke-width:4.57px;stroke-linecap:round;stroke-linejoin:miter;stroke-miterlimit:1.5;"/>
    </g>
    <g transform="matrix(0.760531,-1.13822,1.13822,0.760531,-1282.76,2112.06)">
        <circle cx="1496.06" cy="677.973" r="6.165" style="stroke:white;stroke-width:4.57px;stroke-linecap:round;stroke-linejoin:miter;stroke-miterlimit:1.5;"/>
    </g>
    <g transform="matrix(0.523863,-1.26472,1.26472,0.523863,-1111.53,2643.37)">
        <circle cx="1496.06" cy="677.973" r="6.165" style="stroke:white;stroke-width:4.57px;stroke-linecap:round;stroke-linejoin:miter;stroke-miterlimit:1.5;"/>
    </g>
    <g transform="matrix(0.267063,-1.34262,1.34262,0.267063,-839.934,3131.08)">
        <circle cx="1496.06" cy="677.973" r="6.165" style="stroke:white;stroke-width:4.57px;stroke-linecap:round;stroke-linejoin:miter;stroke-miterlimit:1.5;"/>
    </g>
    <g transform="matrix(2.22045e-16,-1.36892,1.36892,2.22045e-16,-478.41,3556.42)">
        <circle cx="1496.06" cy="677.973" r="6.165" style="stroke:white;stroke-width:4.57px;stroke-linecap:round;stroke-linejoin:miter;stroke-miterlimit:1.5;"/>
    </g>
    <g transform="matrix(-0.267063,-1.34262,1.34262,-0.267063,-40.8522,3903.06)">
        <circle cx="1496.06" cy="677.973" r="6.165" style="stroke:white;stroke-width:4.57px;stroke-linecap:round;stroke-linejoin:miter;stroke-miterlimit:1.5;"/>
    </g>
    <g transform="matrix(-0.523863,-1.26472,1.26472,-0.523863,455.924,4157.68)">
        <circle cx="1496.06" cy="677.973" r="6.165" style="stroke:white;stroke-width:4.57px;stroke-linecap:round;stroke-linejoin:miter;stroke-miterlimit:1.5;"/>
    </g>
    <g transform="matrix(-0.760531,-1.13822,1.13822,-0.760531,992.829,4310.48)">
        <circle cx="1496.06" cy="677.973" r="6.165" style="stroke:white;stroke-width:4.57px;stroke-linecap:round;stroke-linejoin:miter;stroke-miterlimit:1.5;"/>
    </g>
    <g transform="matrix(-0.967973,-0.967973,0.967973,-0.967973,1549.23,4355.61)">
        <circle cx="1496.06" cy="677.973" r="6.165" style="stroke:white;stroke-width:4.57px;stroke-linecap:round;stroke-linejoin:miter;stroke-miterlimit:1.5;"/>
    </g>
    <g transform="matrix(-1.13822,-0.760531,0.760531,-1.13822,2103.74,4291.32)">
        <circle cx="1496.06" cy="677.973" r="6.165" style="stroke:white;stroke-width:4.57px;stroke-linecap:round;stroke-linejoin:miter;stroke-miterlimit:1.5;"/>
    </g>
    <g transform="matrix(-1.26472,-0.523863,0.523863,-1.26472,2635.06,4120.09)">
        <circle cx="1496.06" cy="677.973" r="6.165" style="stroke:white;stroke-width:4.57px;stroke-linecap:round;stroke-linejoin:miter;stroke-miterlimit:1.5;"/>
    </g>
    <g transform="matrix(-1.34262,-0.267063,0.267063,-1.34262,3122.76,3848.49)">
        <circle cx="1496.06" cy="677.973" r="6.165" style="stroke:white;stroke-width:4.57px;stroke-linecap:round;stroke-linejoin:miter;stroke-miterlimit:1.5;"/>
    </g>
    <g transform="matrix(-1.36892,-3.88578e-16,3.88578e-16,-1.36892,3548.1,3486.97)">
        <circle cx="1496.06" cy="677.973" r="6.165" style="stroke:white;stroke-width:4.57px;stroke-linecap:round;stroke-linejoin:miter;stroke-miterlimit:1.5;"/>
    </g>
    <g transform="matrix(-1.34262,0.267063,-0.267063,-1.34262,3894.74,3049.41)">
        <circle cx="1496.06" cy="677.973" r="6.165" style="stroke:white;stroke-width:4.57px;stroke-linecap:round;stroke-linejoin:miter;stroke-miterlimit:1.5;"/>
    </g>
    <g transform="matrix(-1.26472,0.523863,-0.523863,-1.26472,4149.36,2552.64)">
        <circle cx="1496.06" cy="677.973" r="6.165" style="stroke:white;stroke-width:4.57px;stroke-linecap:round;stroke-linejoin:miter;stroke-miterlimit:1.5;"/>
    </g>
    <g transform="matrix(-1.13822,0.760531,-0.760531,-1.13822,4302.17,2015.73)">
        <circle cx="1496.06" cy="677.973" r="6.165" style="stroke:white;stroke-width:4.57px;stroke-linecap:round;stroke-linejoin:miter;stroke-miterlimit:1.5;"/>
    </g>
    <g transform="matrix(-0.967973,0.967973,-0.967973,-0.967973,4347.29,1459.33)">
        <circle cx="1496.06" cy="677.973" r="6.165" style="stroke:white;stroke-width:4.57px;stroke-linecap:round;stroke-linejoin:miter;stroke-miterlimit:1.5;"/>
    </g>
    <g transform="matrix(-0.760531,1.13822,-1.13822,-0.760531,4283,904.821)">
        <circle cx="1496.06" cy="677.973" r="6.165" style="stroke:white;stroke-width:4.57px;stroke-linecap:round;stroke-linejoin:miter;stroke-miterlimit:1.5;"/>
    </g>
    <g transform="matrix(-0.523863,1.26472,-1.26472,-0.523863,4111.77,373.505)">
        <circle cx="1496.06" cy="677.973" r="6.165" style="stroke:white;stroke-width:4.57px;stroke-linecap:round;stroke-linejoin:miter;stroke-miterlimit:1.5;"/>
    </g>
    <g transform="matrix(-0.267063,1.34262,-1.34262,-0.267063,3840.18,-114.195)">
        <circle cx="1496.06" cy="677.973" r="6.165" style="stroke:white;stroke-width:4.57px;stroke-linecap:round;stroke-linejoin:miter;stroke-miterlimit:1.5;"/>
    </g>
    <g transform="matrix(-6.10623e-16,1.36892,-1.36892,-6.10623e-16,3478.65,-539.539)">
        <circle cx="1496.06" cy="677.973" r="6.165" style="stroke:white;stroke-width:4.57px;stroke-linecap:round;stroke-linejoin:miter;stroke-miterlimit:1.5;"/>
    </g>
    <g transform="matrix(0.267063,1.34262,-1.34262,0.267063,3041.09,-886.179)">
        <circle cx="1496.06" cy="677.973" r="6.165" style="stroke:white;stroke-width:4.57px;stroke-linecap:round;stroke-linejoin:miter;stroke-miterlimit:1.5;"/>
    </g>
    <g transform="matrix(0.523863,1.26472,-1.26472,0.523863,2544.32,-1140.8)">
        <circle cx="1496.06" cy="677.973" r="6.165" style="stroke:white;stroke-width:4.57px;stroke-linecap:round;stroke-linejoin:miter;stroke-miterlimit:1.5;"/>
    </g>
    <g transform="matrix(0.760531,1.13822,-1.13822,0.760531,2007.41,-1293.6)">
        <circle cx="1496.06" cy="677.973" r="6.165" style="stroke:white;stroke-width:4.57px;stroke-linecap:round;stroke-linejoin:miter;stroke-miterlimit:1.5;"/>
    </g>
    <g transform="matrix(0.967973,0.967973,-0.967973,0.967973,1451.01,-1338.73)">
        <circle cx="1496.06" cy="677.973" r="6.165" style="stroke:white;stroke-width:4.57px;stroke-linecap:round;stroke-linejoin:miter;stroke-miterlimit:1.5;"/>
    </g>
    <g transform="matrix(1.13822,0.760531,-0.760531,1.13822,896.502,-1274.44)">
        <circle cx="1496.06" cy="677.973" r="6.165" style="stroke:white;stroke-width:4.57px;stroke-linecap:round;stroke-linejoin:miter;stroke-miterlimit:1.5;"/>
    </g>
    <g transform="matrix(1.26472,0.523863,-0.523863,1.26472,365.186,-1103.21)">
        <circle cx="1496.06" cy="677.973" r="6.165" style="stroke:white;stroke-width:4.57px;stroke-linecap:round;stroke-linejoin:miter;stroke-miterlimit:1.5;"/>
    </g>
    <g transform="matrix(1.34262,0.267063,-0.267063,1.34262,-122.514,-831.614)">
        <circle cx="1496.06" cy="677.973" r="6.165" style="stroke:white;stroke-width:4.57px;stroke-linecap:round;stroke-linejoin:miter;stroke-miterlimit:1.5;"/>
    </g>
    <g transform="matrix(1.36892,0,0,1.36892,-547.942,-518.729)">
        <circle cx="1496.06" cy="677.973" r="6.165" style="stroke:white;stroke-width:4.57px;stroke-linecap:round;stroke-linejoin:miter;stroke-miterlimit:1.5;"/>
    </g>
    <g transform="matrix(1.34262,-0.267063,0.267063,1.34262,-904.07,-80.2201)">
        <circle cx="1496.06" cy="677.973" r="6.165" style="stroke:white;stroke-width:4.57px;stroke-linecap:round;stroke-linejoin:miter;stroke-miterlimit:1.5;"/>
    </g>
    <g transform="matrix(1.26472,-0.523863,0.523863,1.26472,-1167.81,419.34)">
        <circle cx="1496.06" cy="677.973" r="6.165" style="stroke:white;stroke-width:4.57px;stroke-linecap:round;stroke-linejoin:miter;stroke-miterlimit:1.5;"/>
    </g>
    <g transform="matrix(1.13822,-0.760531,0.760531,1.13822,-1329.02,960.753)">
        <circle cx="1496.06" cy="677.973" r="6.165" style="stroke:white;stroke-width:4.57px;stroke-linecap:round;stroke-linejoin:miter;stroke-miterlimit:1.5;"/>
    </g>
    <g transform="matrix(0.967973,-0.967973,0.967973,0.967973,-1381.5,1523.21)">
        <circle cx="1496.06" cy="677.973" r="6.165" style="stroke:white;stroke-width:4.57px;stroke-linecap:round;stroke-linejoin:miter;stroke-miterlimit:1.5;"/>
    </g>
    <g transform="matrix(0.760531,-1.13822,1.13822,0.760531,-1323.25,2085.11)">
        <circle cx="1496.06" cy="677.973" r="6.165" style="stroke:white;stroke-width:4.57px;stroke-linecap:round;stroke-linejoin:miter;stroke-miterlimit:1.5;"/>
    </g>
    <g transform="matrix(0.523863,-1.26472,1.26472,0.523863,-1156.5,2624.84)">
        <circle cx="1496.06" cy="677.973" r="6.165" style="stroke:white;stroke-width:4.57px;stroke-linecap:round;stroke-linejoin:miter;stroke-miterlimit:1.5;"/>
    </g>
    <g transform="matrix(0.267063,-1.34262,1.34262,0.267063,-887.654,3121.67)">
        <circle cx="1496.06" cy="677.973" r="6.165" style="stroke:white;stroke-width:4.57px;stroke-linecap:round;stroke-linejoin:miter;stroke-miterlimit:1.5;"/>
    </g>
    <g transform="matrix(2.22045e-16,-1.36892,1.36892,2.22045e-16,-527.048,3556.5)">
        <circle cx="1496.06" cy="677.973" r="6.165" style="stroke:white;stroke-width:4.57px;stroke-linecap:round;stroke-linejoin:miter;stroke-miterlimit:1.5;"/>
    </g>
    <g transform="matrix(-0.267063,-1.34262,1.34262,-0.267063,-88.5394,3912.63)">
        <circle cx="1496.06" cy="677.973" r="6.165" style="stroke:white;stroke-width:4.57px;stroke-linecap:round;stroke-linejoin:miter;stroke-miterlimit:1.5;"/>
    </g>
    <g transform="matrix(-0.523863,-1.26472,1.26472,-0.523863,411.021,4176.37)">
        <circle cx="1496.06" cy="677.973" r="6.165" style="stroke:white;stroke-width:4.57px;stroke-linecap:round;stroke-linejoin:miter;stroke-miterlimit:1.5;"/>
    </g>
    <g transform="matrix(-0.760531,-1.13822,1.13822,-0.760531,952.434,4337.58)">
        <circle cx="1496.06" cy="677.973" r="6.165" style="stroke:white;stroke-width:4.57px;stroke-linecap:round;stroke-linejoin:miter;stroke-miterlimit:1.5;"/>
    </g>
    <g transform="matrix(-0.967973,-0.967973,0.967973,-0.967973,1514.89,4390.06)">
        <circle cx="1496.06" cy="677.973" r="6.165" style="stroke:white;stroke-width:4.57px;stroke-linecap:round;stroke-linejoin:miter;stroke-miterlimit:1.5;"/>
    </g>
    <g transform="matrix(-1.13822,-0.760531,0.760531,-1.13822,2076.79,4331.81)">
        <circle cx="1496.06" cy="677.973" r="6.165" style="stroke:white;stroke-width:4.57px;stroke-linecap:round;stroke-linejoin:miter;stroke-miterlimit:1.5;"/>
    </g>
    <g transform="matrix(-1.26472,-0.523863,0.523863,-1.26472,2616.52,4165.06)">
        <circle cx="1496.06" cy="677.973" r="6.165" style="stroke:white;stroke-width:4.57px;stroke-linecap:round;stroke-linejoin:miter;stroke-miterlimit:1.5;"/>
    </g>
    <g transform="matrix(-1.34262,-0.267063,0.267063,-1.34262,3113.35,3896.21)">
        <circle cx="1496.06" cy="677.973" r="6.165" style="stroke:white;stroke-width:4.57px;stroke-linecap:round;stroke-linejoin:miter;stroke-miterlimit:1.5;"/>
    </g>
    <g transform="matrix(-1.36892,-3.88578e-16,3.88578e-16,-1.36892,3548.18,3535.61)">
        <circle cx="1496.06" cy="677.973" r="6.165" style="stroke:white;stroke-width:4.57px;stroke-linecap:round;stroke-linejoin:miter;stroke-miterlimit:1.5;"/>
    </g>
    <g transform="matrix(-1.34262,0.267063,-0.267063,-1.34262,3904.31,3097.1)">
        <circle cx="1496.06" cy="677.973" r="6.165" style="stroke:white;stroke-width:4.57px;stroke-linecap:round;stroke-linejoin:miter;stroke-miterlimit:1.5;"/>
    </g>
    <g transform="matrix(-1.26472,0.523863,-0.523863,-1.26472,4168.05,2597.54)">
        <circle cx="1496.06" cy="677.973" r="6.165" style="stroke:white;stroke-width:4.57px;stroke-linecap:round;stroke-linejoin:miter;stroke-miterlimit:1.5;"/>
    </g>
    <g transform="matrix(-1.13822,0.760531,-0.760531,-1.13822,4329.26,2056.13)">
        <circle cx="1496.06" cy="677.973" r="6.165" style="stroke:white;stroke-width:4.57px;stroke-linecap:round;stroke-linejoin:miter;stroke-miterlimit:1.5;"/>
    </g>
    <g transform="matrix(-0.967973,0.967973,-0.967973,-0.967973,4381.74,1493.67)">
        <circle cx="1496.06" cy="677.973" r="6.165" style="stroke:white;stroke-width:4.57px;stroke-linecap:round;stroke-linejoin:miter;stroke-miterlimit:1.5;"/>
    </g>
    <g transform="matrix(-0.760531,1.13822,-1.13822,-0.760531,4323.49,931.773)">
        <circle cx="1496.06" cy="677.973" r="6.165" style="stroke:white;stroke-width:4.57px;stroke-linecap:round;stroke-linejoin:miter;stroke-miterlimit:1.5;"/>
    </g>
    <g transform="matrix(-0.523863,1.26472,-1.26472,-0.523863,4156.74,392.041)">
        <circle cx="1496.06" cy="677.973" r="6.165" style="stroke:white;stroke-width:4.57px;stroke-linecap:round;stroke-linejoin:miter;stroke-miterlimit:1.5;"/>
    </g>
    <g transform="matrix(-0.267063,1.34262,-1.34262,-0.267063,3887.9,-104.788)">
        <circle cx="1496.06" cy="677.973" r="6.165" style="stroke:white;stroke-width:4.57px;stroke-linecap:round;stroke-linejoin:miter;stroke-miterlimit:1.5;"/>
    </g>
    <g transform="matrix(-6.10623e-16,1.36892,-1.36892,-6.10623e-16,3527.29,-539.622)">
        <circle cx="1496.06" cy="677.973" r="6.165" style="stroke:white;stroke-width:4.57px;stroke-linecap:round;stroke-linejoin:miter;stroke-miterlimit:1.5;"/>
    </g>
    <g transform="matrix(0.267063,1.34262,-1.34262,0.267063,3088.78,-895.75)">
        <circle cx="1496.06" cy="677.973" r="6.165" style="stroke:white;stroke-width:4.57px;stroke-linecap:round;stroke-linejoin:miter;stroke-miterlimit:1.5;"/>
    </g>
    <g transform="matrix(0.523863,1.26472,-1.26472,0.523863,2589.22,-1159.49)">
        <circle cx="1496.06" cy="677.973" r="6.165" style="stroke:white;stroke-width:4.57px;stroke-linecap:round;stroke-linejoin:miter;stroke-miterlimit:1.5;"/>
    </g>
    <g transform="matrix(0.760531,1.13822,-1.13822,0.760531,2047.81,-1320.7)">
        <circle cx="1496.06" cy="677.973" r="6.165" style="stroke:white;stroke-width:4.57px;stroke-linecap:round;stroke-linejoin:miter;stroke-miterlimit:1.5;"/>
    </g>
    <g transform="matrix(0.967973,0.967973,-0.967973,0.967973,1485.35,-1373.18)">
        <circle cx="1496.06" cy="677.973" r="6.165" style="stroke:white;stroke-width:4.57px;stroke-linecap:round;stroke-linejoin:miter;stroke-miterlimit:1.5;"/>
    </g>
    <g transform="matrix(1.13822,0.760531,-0.760531,1.13822,923.454,-1314.93)">
        <circle cx="1496.06" cy="677.973" r="6.165" style="stroke:white;stroke-width:4.57px;stroke-linecap:round;stroke-linejoin:miter;stroke-miterlimit:1.5;"/>
    </g>
    <g transform="matrix(1.26472,0.523863,-0.523863,1.26472,383.722,-1148.18)">
        <circle cx="1496.06" cy="677.973" r="6.165" style="stroke:white;stroke-width:4.57px;stroke-linecap:round;stroke-linejoin:miter;stroke-miterlimit:1.5;"/>
    </g>
    <g transform="matrix(1.34262,0.267063,-0.267063,1.34262,-113.108,-879.334)">
        <circle cx="1496.06" cy="677.973" r="6.165" style="stroke:white;stroke-width:4.57px;stroke-linecap:round;stroke-linejoin:miter;stroke-miterlimit:1.5;"/>
    </g>
    <g transform="matrix(1.36892,0,0,1.36892,-547.888,-631.699)">
        <circle cx="1496.06" cy="677.973" r="6.165" style="stroke:white;stroke-width:4.57px;stroke-linecap:round;stroke-linejoin:miter;stroke-miterlimit:1.5;"/>
    </g>
    <g transform="matrix(1.34262,-0.267063,0.267063,1.34262,-926.056,-191.03)">
        <circle cx="1496.06" cy="677.973" r="6.165" style="stroke:white;stroke-width:4.57px;stroke-linecap:round;stroke-linejoin:miter;stroke-miterlimit:1.5;"/>
    </g>
    <g transform="matrix(1.26472,-0.523863,0.523863,1.26472,-1210.99,314.948)">
        <circle cx="1496.06" cy="677.973" r="6.165" style="stroke:white;stroke-width:4.57px;stroke-linecap:round;stroke-linejoin:miter;stroke-miterlimit:1.5;"/>
    </g>
    <g transform="matrix(1.13822,-0.760531,0.760531,1.13822,-1391.73,866.792)">
        <circle cx="1496.06" cy="677.973" r="6.165" style="stroke:white;stroke-width:4.57px;stroke-linecap:round;stroke-linejoin:miter;stroke-miterlimit:1.5;"/>
    </g>
    <g transform="matrix(0.967973,-0.967973,0.967973,0.967973,-1461.35,1443.29)">
        <circle cx="1496.06" cy="677.973" r="6.165" style="stroke:white;stroke-width:4.57px;stroke-linecap:round;stroke-linejoin:miter;stroke-miterlimit:1.5;"/>
    </g>
    <g transform="matrix(0.760531,-1.13822,1.13822,0.760531,-1417.15,2022.3)">
        <circle cx="1496.06" cy="677.973" r="6.165" style="stroke:white;stroke-width:4.57px;stroke-linecap:round;stroke-linejoin:miter;stroke-miterlimit:1.5;"/>
    </g>
    <g transform="matrix(0.523863,-1.26472,1.26472,0.523863,-1260.85,2581.56)">
        <circle cx="1496.06" cy="677.973" r="6.165" style="stroke:white;stroke-width:4.57px;stroke-linecap:round;stroke-linejoin:miter;stroke-miterlimit:1.5;"/>
    </g>
    <g transform="matrix(0.267063,-1.34262,1.34262,0.267063,-998.443,3099.58)">
        <circle cx="1496.06" cy="677.973" r="6.165" style="stroke:white;stroke-width:4.57px;stroke-linecap:round;stroke-linejoin:miter;stroke-miterlimit:1.5;"/>
    </g>
    <g transform="matrix(2.22045e-16,-1.36892,1.36892,2.22045e-16,-640.018,3556.45)">
        <circle cx="1496.06" cy="677.973" r="6.165" style="stroke:white;stroke-width:4.57px;stroke-linecap:round;stroke-linejoin:miter;stroke-miterlimit:1.5;"/>
    </g>
    <g transform="matrix(-0.267063,-1.34262,1.34262,-0.267063,-199.349,3934.62)">
        <circle cx="1496.06" cy="677.973" r="6.165" style="stroke:white;stroke-width:4.57px;stroke-linecap:round;stroke-linejoin:miter;stroke-miterlimit:1.5;"/>
    </g>
    <g transform="matrix(-0.523863,-1.26472,1.26472,-0.523863,306.629,4219.55)">
        <circle cx="1496.06" cy="677.973" r="6.165" style="stroke:white;stroke-width:4.57px;stroke-linecap:round;stroke-linejoin:miter;stroke-miterlimit:1.5;"/>
    </g>
    <g transform="matrix(-0.760531,-1.13822,1.13822,-0.760531,858.473,4400.29)">
        <circle cx="1496.06" cy="677.973" r="6.165" style="stroke:white;stroke-width:4.57px;stroke-linecap:round;stroke-linejoin:miter;stroke-miterlimit:1.5;"/>
    </g>
    <g transform="matrix(-0.967973,-0.967973,0.967973,-0.967973,1434.97,4469.91)">
        <circle cx="1496.06" cy="677.973" r="6.165" style="stroke:white;stroke-width:4.57px;stroke-linecap:round;stroke-linejoin:miter;stroke-miterlimit:1.5;"/>
    </g>
    <g transform="matrix(-1.13822,-0.760531,0.760531,-1.13822,2013.98,4425.71)">
        <circle cx="1496.06" cy="677.973" r="6.165" style="stroke:white;stroke-width:4.57px;stroke-linecap:round;stroke-linejoin:miter;stroke-miterlimit:1.5;"/>
    </g>
    <g transform="matrix(-1.26472,-0.523863,0.523863,-1.26472,2573.24,4269.41)">
        <circle cx="1496.06" cy="677.973" r="6.165" style="stroke:white;stroke-width:4.57px;stroke-linecap:round;stroke-linejoin:miter;stroke-miterlimit:1.5;"/>
    </g>
    <g transform="matrix(-1.34262,-0.267063,0.267063,-1.34262,3091.26,4007)">
        <circle cx="1496.06" cy="677.973" r="6.165" style="stroke:white;stroke-width:4.57px;stroke-linecap:round;stroke-linejoin:miter;stroke-miterlimit:1.5;"/>
    </g>
    <g transform="matrix(-1.36892,-3.88578e-16,3.88578e-16,-1.36892,3548.13,3648.58)">
        <circle cx="1496.06" cy="677.973" r="6.165" style="stroke:white;stroke-width:4.57px;stroke-linecap:round;stroke-linejoin:miter;stroke-miterlimit:1.5;"/>
    </g>
    <g transform="matrix(-1.34262,0.267063,-0.267063,-1.34262,3926.3,3207.91)">
        <circle cx="1496.06" cy="677.973" r="6.165" style="stroke:white;stroke-width:4.57px;stroke-linecap:round;stroke-linejoin:miter;stroke-miterlimit:1.5;"/>
    </g>
    <g transform="matrix(-1.26472,0.523863,-0.523863,-1.26472,4211.23,2701.93)">
        <circle cx="1496.06" cy="677.973" r="6.165" style="stroke:white;stroke-width:4.57px;stroke-linecap:round;stroke-linejoin:miter;stroke-miterlimit:1.5;"/>
    </g>
    <g transform="matrix(-1.13822,0.760531,-0.760531,-1.13822,4391.97,2150.09)">
        <circle cx="1496.06" cy="677.973" r="6.165" style="stroke:white;stroke-width:4.57px;stroke-linecap:round;stroke-linejoin:miter;stroke-miterlimit:1.5;"/>
    </g>
    <g transform="matrix(-0.967973,0.967973,-0.967973,-0.967973,4461.59,1573.59)">
        <circle cx="1496.06" cy="677.973" r="6.165" style="stroke:white;stroke-width:4.57px;stroke-linecap:round;stroke-linejoin:miter;stroke-miterlimit:1.5;"/>
    </g>
    <g transform="matrix(-0.760531,1.13822,-1.13822,-0.760531,4417.39,994.581)">
        <circle cx="1496.06" cy="677.973" r="6.165" style="stroke:white;stroke-width:4.57px;stroke-linecap:round;stroke-linejoin:miter;stroke-miterlimit:1.5;"/>
    </g>
    <g transform="matrix(-0.523863,1.26472,-1.26472,-0.523863,4261.09,435.323)">
        <circle cx="1496.06" cy="677.973" r="6.165" style="stroke:white;stroke-width:4.57px;stroke-linecap:round;stroke-linejoin:miter;stroke-miterlimit:1.5;"/>
    </g>
    <g transform="matrix(-0.267063,1.34262,-1.34262,-0.267063,3998.68,-82.696)">
        <circle cx="1496.06" cy="677.973" r="6.165" style="stroke:white;stroke-width:4.57px;stroke-linecap:round;stroke-linejoin:miter;stroke-miterlimit:1.5;"/>
    </g>
    <g transform="matrix(-6.10623e-16,1.36892,-1.36892,-6.10623e-16,3640.26,-539.568)">
        <circle cx="1496.06" cy="677.973" r="6.165" style="stroke:white;stroke-width:4.57px;stroke-linecap:round;stroke-linejoin:miter;stroke-miterlimit:1.5;"/>
    </g>
    <g transform="matrix(0.267063,1.34262,-1.34262,0.267063,3199.59,-917.737)">
        <circle cx="1496.06" cy="677.973" r="6.165" style="stroke:white;stroke-width:4.57px;stroke-linecap:round;stroke-linejoin:miter;stroke-miterlimit:1.5;"/>
    </g>
    <g transform="matrix(0.523863,1.26472,-1.26472,0.523863,2693.61,-1202.67)">
        <circle cx="1496.06" cy="677.973" r="6.165" style="stroke:white;stroke-width:4.57px;stroke-linecap:round;stroke-linejoin:miter;stroke-miterlimit:1.5;"/>
    </g>
    <g transform="matrix(0.760531,1.13822,-1.13822,0.760531,2141.77,-1383.41)">
        <circle cx="1496.06" cy="677.973" r="6.165" style="stroke:white;stroke-width:4.57px;stroke-linecap:round;stroke-linejoin:miter;stroke-miterlimit:1.5;"/>
    </g>
    <g transform="matrix(0.967973,0.967973,-0.967973,0.967973,1565.27,-1453.03)">
        <circle cx="1496.06" cy="677.973" r="6.165" style="stroke:white;stroke-width:4.57px;stroke-linecap:round;stroke-linejoin:miter;stroke-miterlimit:1.5;"/>
    </g>
    <g transform="matrix(1.13822,0.760531,-0.760531,1.13822,986.261,-1408.83)">
        <circle cx="1496.06" cy="677.973" r="6.165" style="stroke:white;stroke-width:4.57px;stroke-linecap:round;stroke-linejoin:miter;stroke-miterlimit:1.5;"/>
    </g>
    <g transform="matrix(1.26472,0.523863,-0.523863,1.26472,427.003,-1252.53)">
        <circle cx="1496.06" cy="677.973" r="6.165" style="stroke:white;stroke-width:4.57px;stroke-linecap:round;stroke-linejoin:miter;stroke-miterlimit:1.5;"/>
    </g>
    <g transform="matrix(1.34262,0.267063,-0.267063,1.34262,-91.0153,-990.123)">
        <circle cx="1496.06" cy="677.973" r="6.165" style="stroke:white;stroke-width:4.57px;stroke-linecap:round;stroke-linejoin:miter;stroke-miterlimit:1.5;"/>
    </g>
    <g transform="matrix(1.36892,0,0,1.36892,-547.791,-853.197)">
        <circle cx="1496.06" cy="677.973" r="6.165" style="stroke:white;stroke-width:4.57px;stroke-linecap:round;stroke-linejoin:miter;stroke-miterlimit:1.5;"/>
    </g>
    <g transform="matrix(1.34262,-0.267063,0.267063,1.34262,-969.173,-408.291)">
        <circle cx="1496.06" cy="677.973" r="6.165" style="stroke:white;stroke-width:4.57px;stroke-linecap:round;stroke-linejoin:miter;stroke-miterlimit:1.5;"/>
    </g>
    <g transform="matrix(1.26472,-0.523863,0.523863,1.26472,-1295.66,110.274)">
        <circle cx="1496.06" cy="677.973" r="6.165" style="stroke:white;stroke-width:4.57px;stroke-linecap:round;stroke-linejoin:miter;stroke-miterlimit:1.5;"/>
    </g>
    <g transform="matrix(1.13822,-0.760531,0.760531,1.13822,-1514.71,682.569)">
        <circle cx="1496.06" cy="677.973" r="6.165" style="stroke:white;stroke-width:4.57px;stroke-linecap:round;stroke-linejoin:miter;stroke-miterlimit:1.5;"/>
    </g>
    <g transform="matrix(0.967973,-0.967973,0.967973,0.967973,-1617.9,1286.6)">
        <circle cx="1496.06" cy="677.973" r="6.165" style="stroke:white;stroke-width:4.57px;stroke-linecap:round;stroke-linejoin:miter;stroke-miterlimit:1.5;"/>
    </g>
    <g transform="matrix(0.760531,-1.13822,1.13822,0.760531,-1601.27,1899.16)">
        <circle cx="1496.06" cy="677.973" r="6.165" style="stroke:white;stroke-width:4.57px;stroke-linecap:round;stroke-linejoin:miter;stroke-miterlimit:1.5;"/>
    </g>
    <g transform="matrix(0.523863,-1.26472,1.26472,0.523863,-1465.45,2496.7)">
        <circle cx="1496.06" cy="677.973" r="6.165" style="stroke:white;stroke-width:4.57px;stroke-linecap:round;stroke-linejoin:miter;stroke-miterlimit:1.5;"/>
    </g>
    <g transform="matrix(0.267063,-1.34262,1.34262,0.267063,-1215.67,3056.27)">
        <circle cx="1496.06" cy="677.973" r="6.165" style="stroke:white;stroke-width:4.57px;stroke-linecap:round;stroke-linejoin:miter;stroke-miterlimit:1.5;"/>
    </g>
    <g transform="matrix(2.22045e-16,-1.36892,1.36892,2.22045e-16,-861.516,3556.35)">
        <circle cx="1496.06" cy="677.973" r="6.165" style="stroke:white;stroke-width:4.57px;stroke-linecap:round;stroke-linejoin:miter;stroke-miterlimit:1.5;"/>
    </g>
    <g transform="matrix(-0.267063,-1.34262,1.34262,-0.267063,-416.61,3977.73)">
        <circle cx="1496.06" cy="677.973" r="6.165" style="stroke:white;stroke-width:4.57px;stroke-linecap:round;stroke-linejoin:miter;stroke-miterlimit:1.5;"/>
    </g>
    <g transform="matrix(-0.523863,-1.26472,1.26472,-0.523863,101.955,4304.22)">
        <circle cx="1496.06" cy="677.973" r="6.165" style="stroke:white;stroke-width:4.57px;stroke-linecap:round;stroke-linejoin:miter;stroke-miterlimit:1.5;"/>
    </g>
    <g transform="matrix(-0.760531,-1.13822,1.13822,-0.760531,674.25,4523.27)">
        <circle cx="1496.06" cy="677.973" r="6.165" style="stroke:white;stroke-width:4.57px;stroke-linecap:round;stroke-linejoin:miter;stroke-miterlimit:1.5;"/>
    </g>
    <g transform="matrix(-0.967973,-0.967973,0.967973,-0.967973,1278.28,4626.46)">
        <circle cx="1496.06" cy="677.973" r="6.165" style="stroke:white;stroke-width:4.57px;stroke-linecap:round;stroke-linejoin:miter;stroke-miterlimit:1.5;"/>
    </g>
    <g transform="matrix(-1.13822,-0.760531,0.760531,-1.13822,1890.84,4609.83)">
        <circle cx="1496.06" cy="677.973" r="6.165" style="stroke:white;stroke-width:4.57px;stroke-linecap:round;stroke-linejoin:miter;stroke-miterlimit:1.5;"/>
    </g>
    <g transform="matrix(-1.26472,-0.523863,0.523863,-1.26472,2488.38,4474.01)">
        <circle cx="1496.06" cy="677.973" r="6.165" style="stroke:white;stroke-width:4.57px;stroke-linecap:round;stroke-linejoin:miter;stroke-miterlimit:1.5;"/>
    </g>
    <g transform="matrix(-1.34262,-0.267063,0.267063,-1.34262,3047.95,4224.23)">
        <circle cx="1496.06" cy="677.973" r="6.165" style="stroke:white;stroke-width:4.57px;stroke-linecap:round;stroke-linejoin:miter;stroke-miterlimit:1.5;"/>
    </g>
    <g transform="matrix(-1.36892,-3.88578e-16,3.88578e-16,-1.36892,3548.03,3870.08)">
        <circle cx="1496.06" cy="677.973" r="6.165" style="stroke:white;stroke-width:4.57px;stroke-linecap:round;stroke-linejoin:miter;stroke-miterlimit:1.5;"/>
    </g>
    <g transform="matrix(-1.34262,0.267063,-0.267063,-1.34262,3969.41,3425.17)">
        <circle cx="1496.06" cy="677.973" r="6.165" style="stroke:white;stroke-width:4.57px;stroke-linecap:round;stroke-linejoin:miter;stroke-miterlimit:1.5;"/>
    </g>
    <g transform="matrix(-1.26472,0.523863,-0.523863,-1.26472,4295.9,2906.61)">
        <circle cx="1496.06" cy="677.973" r="6.165" style="stroke:white;stroke-width:4.57px;stroke-linecap:round;stroke-linejoin:miter;stroke-miterlimit:1.5;"/>
    </g>
    <g transform="matrix(-1.13822,0.760531,-0.760531,-1.13822,4514.95,2334.31)">
        <circle cx="1496.06" cy="677.973" r="6.165" style="stroke:white;stroke-width:4.57px;stroke-linecap:round;stroke-linejoin:miter;stroke-miterlimit:1.5;"/>
    </g>
    <g transform="matrix(-0.967973,0.967973,-0.967973,-0.967973,4618.14,1730.28)">
        <circle cx="1496.06" cy="677.973" r="6.165" style="stroke:white;stroke-width:4.57px;stroke-linecap:round;stroke-linejoin:miter;stroke-miterlimit:1.5;"/>
    </g>
    <g transform="matrix(-0.760531,1.13822,-1.13822,-0.760531,4601.51,1117.72)">
        <circle cx="1496.06" cy="677.973" r="6.165" style="stroke:white;stroke-width:4.57px;stroke-linecap:round;stroke-linejoin:miter;stroke-miterlimit:1.5;"/>
    </g>
    <g transform="matrix(-0.523863,1.26472,-1.26472,-0.523863,4465.69,520.176)">
        <circle cx="1496.06" cy="677.973" r="6.165" style="stroke:white;stroke-width:4.57px;stroke-linecap:round;stroke-linejoin:miter;stroke-miterlimit:1.5;"/>
    </g>
    <g transform="matrix(-0.267063,1.34262,-1.34262,-0.267063,4215.91,-39.389)">
        <circle cx="1496.06" cy="677.973" r="6.165" style="stroke:white;stroke-width:4.57px;stroke-linecap:round;stroke-linejoin:miter;stroke-miterlimit:1.5;"/>
    </g>
    <g transform="matrix(-6.10623e-16,1.36892,-1.36892,-6.10623e-16,3861.76,-539.472)">
        <circle cx="1496.06" cy="677.973" r="6.165" style="stroke:white;stroke-width:4.57px;stroke-linecap:round;stroke-linejoin:miter;stroke-miterlimit:1.5;"/>
    </g>
    <g transform="matrix(0.267063,1.34262,-1.34262,0.267063,3416.85,-960.854)">
        <circle cx="1496.06" cy="677.973" r="6.165" style="stroke:white;stroke-width:4.57px;stroke-linecap:round;stroke-linejoin:miter;stroke-miterlimit:1.5;"/>
    </g>
    <g transform="matrix(0.523863,1.26472,-1.26472,0.523863,2898.29,-1287.34)">
        <circle cx="1496.06" cy="677.973" r="6.165" style="stroke:white;stroke-width:4.57px;stroke-linecap:round;stroke-linejoin:miter;stroke-miterlimit:1.5;"/>
    </g>
    <g transform="matrix(0.760531,1.13822,-1.13822,0.760531,2325.99,-1506.39)">
        <circle cx="1496.06" cy="677.973" r="6.165" style="stroke:white;stroke-width:4.57px;stroke-linecap:round;stroke-linejoin:miter;stroke-miterlimit:1.5;"/>
    </g>
    <g transform="matrix(0.967973,0.967973,-0.967973,0.967973,1721.96,-1609.58)">
        <circle cx="1496.06" cy="677.973" r="6.165" style="stroke:white;stroke-width:4.57px;stroke-linecap:round;stroke-linejoin:miter;stroke-miterlimit:1.5;"/>
    </g>
    <g transform="matrix(1.13822,0.760531,-0.760531,1.13822,1109.4,-1592.95)">
        <circle cx="1496.06" cy="677.973" r="6.165" style="stroke:white;stroke-width:4.57px;stroke-linecap:round;stroke-linejoin:miter;stroke-miterlimit:1.5;"/>
    </g>
    <g transform="matrix(1.26472,0.523863,-0.523863,1.26472,511.856,-1457.13)">
        <circle cx="1496.06" cy="677.973" r="6.165" style="stroke:white;stroke-width:4.57px;stroke-linecap:round;stroke-linejoin:miter;stroke-miterlimit:1.5;"/>
    </g>
    <g transform="matrix(1.34262,0.267063,-0.267063,1.34262,-47.7083,-1207.35)">
        <circle cx="1496.06" cy="677.973" r="6.165" style="stroke:white;stroke-width:4.57px;stroke-linecap:round;stroke-linejoin:miter;stroke-miterlimit:1.5;"/>
    </g>
</svg>
