<svg xmlns="http://www.w3.org/2000/svg" xml:space="preserve" style="fill-rule:evenodd;clip-rule:evenodd;stroke-linejoin:round;stroke-miterlimit:2" viewBox="0 0 512 512">
  <path d="M135.6 237.5H51.2a9.7 9.7 0 0 1-7.6-3c-1.7-2-2.6-4.7-2.6-8.6V66.4c0-3.8 1-6.7 2.6-8.6 1.7-1.9 4.2-3 7.6-3h70.1c15 0 23.1 3.4 30.3 9.7 7.4 6.6 10.9 16.7 10.9 30.7V107a34 34 0 0 1-11.3 25.1c7 1.8 12.4 5.4 16.1 10.5a49.3 49.3 0 0 1 7.3 29.2v22.6c0 14.7-2.7 25.6-10 32.6-7.3 6.9-13.6 10.5-29 10.5Z" style="fill:#fff" transform="matrix(2.636 0 0 2.352 11.8 -121)"/>
  <path d="M424.2 186.8a74 74 0 0 1 40 30.3c11 16.1 15.8 38.8 15.8 68.1v54.3c0 37-9.2 64.3-31.2 82.2l-76.2 64.2c-20.4 17.2-51.9 26.1-94.7 26.1H64.1c-11 0-18-3-23.5-8.4S32 490.1 32 479.3V97c0-11.8 3.7-20.4 10.5-26v-.1l76.1-64.3A35.3 35.3 0 0 1 141.5 0h174.9c43.6 0 82.3 8.5 102.4 24.8 20.6 16.7 29.2 42.3 29.2 77V130a81.2 81.2 0 0 1-23.7 56.7Zm-69 245c38.3 0 65.5-8.4 83.5-23.5 17.6-14.8 25.1-37.8 25.1-68.8v-54.3c0-27.5-5.5-48.3-17-62.2a71.3 71.3 0 0 0-51.4-26 5.6 5.6 0 0 1-1.6-10.8 57.2 57.2 0 0 0 37.9-56.1v-28.3c0-29-7.5-50.5-25-64-18-14-52.9-20.7-90.4-20.7H143.9c-5.4 0-9.6 1-12.3 3.7-2.6 2.6-3.7 6.7-3.7 12V416c0 5.3 1 9.3 3.7 12 2.7 2.6 6.9 3.7 12.3 3.7h211.3Zm-109.8-176h77.9c9.4 0 16.3 2.6 21 7.3 4.7 4.8 7.3 11.8 7.3 21.2v23c0 9.7-2.6 15.8-7.2 20.6-4.7 4.9-11.7 7.6-21.1 7.6h-77.9a5.6 5.6 0 0 1-5.6-5.6v-68.6c0-3 2.5-5.6 5.6-5.6Zm0-159.6h46c9.3 0 18 3 22.7 7.8 5.8 6 6 15.1 6 15.1l-.4 16.3v16.5c0 9.6-2.9 14.9-7.4 19.8-3.9 4.4-17 4-17 4l-49-.2s-3.1.3-5.3-2.6c-1.7-2.2-1.2-5.3-1.2-5.3v-65.8c0-3.1 2.5-5.6 5.6-5.6Z"/>
  <path d="M175.3 56.7v-.5a8 8 0 0 1 7.9-8l132.2-.2s35.2-.2 55.5 23.5c14 16.2 13 43 12.7 46.8v36.4s-.2 21.7-17.8 40.9a70.4 70.4 0 0 1-16.5 13c4.8.3 12.2 1 19.8 2.4a62.9 62.9 0 0 1 26 10.3c16.2 12.7 20.5 41.3 20.5 41.3v65.7c.1 2.1.5 14.8-6.7 30.5-9.5 20.7-33.6 25-33.6 25H183.2a8 8 0 0 1-7.9-7.9V56.7Zm124.4 151.7 1-.2s35.2-3.4 53.4-23.3a51.9 51.9 0 0 0 13.7-30.5v-37s2.3-22.5-9-35.6c-15.7-18.4-43.2-18-43.2-18l-124.5.3v144.3h108.6ZM191 224.3V368h182.1c3-.6 15.9-4 21.3-15.8 5.9-13 5.3-23 5.3-23v-65c-.5-3.4-3.6-21.9-14.6-30.5a46.4 46.4 0 0 0-19.1-7.2c-11.6-2.2-22.6-2.2-22.7-2.2H191.1Z"/>
</svg>
