<?xml version="1.0" encoding="UTF-8" standalone="no"?>
<!DOCTYPE svg PUBLIC "-//W3C//DTD SVG 1.1//EN" "http://www.w3.org/Graphics/SVG/1.1/DTD/svg11.dtd">
<svg width="100%" height="100%" viewBox="0 0 512 512" version="1.1" xmlns="http://www.w3.org/2000/svg" xmlns:xlink="http://www.w3.org/1999/xlink" xml:space="preserve" xmlns:serif="http://www.serif.com/" style="fill-rule:evenodd;clip-rule:evenodd;stroke-linecap:round;stroke-linejoin:round;stroke-miterlimit:2;">
    <g transform="matrix(1,0,0,1,57.836,-67.4642)">
        <g transform="matrix(579.167,0,0,579.167,28.1616,498.673)">
            <path d="M0.489,-0L0.105,-0C0.081,-0 0.069,-0.012 0.069,-0.036L0.069,-0.684C0.069,-0.708 0.081,-0.72 0.105,-0.72L0.424,-0.72C0.489,-0.72 0.538,-0.708 0.569,-0.683C0.6,-0.658 0.616,-0.62 0.616,-0.567L0.616,-0.519C0.616,-0.464 0.596,-0.428 0.557,-0.411C0.6,-0.407 0.632,-0.393 0.653,-0.368C0.673,-0.343 0.683,-0.305 0.683,-0.256L0.683,-0.164C0.683,-0.108 0.667,-0.067 0.636,-0.04C0.605,-0.013 0.556,-0 0.489,-0ZM0.294,-0.288L0.294,-0.17L0.424,-0.17C0.449,-0.17 0.462,-0.183 0.462,-0.21L0.462,-0.249C0.462,-0.275 0.449,-0.288 0.424,-0.288L0.294,-0.288ZM0.294,-0.55L0.294,-0.442L0.379,-0.442C0.404,-0.442 0.417,-0.455 0.417,-0.482L0.417,-0.51C0.417,-0.537 0.404,-0.55 0.379,-0.55L0.294,-0.55Z" style="fill:white;fill-rule:nonzero;"/>
        </g>
        <path d="M311.374,504.923L88.974,504.923C80.011,504.923 73.399,502.361 68.917,497.88C64.436,493.398 61.874,486.786 61.874,477.823L61.874,102.523C61.874,93.56 64.436,86.947 68.917,82.466C73.399,77.984 80.011,75.423 88.974,75.423L273.728,75.423C313.347,75.423 342.572,83.233 361.573,98.191C381.084,113.551 391.178,137.49 391.178,170.285L391.178,198.085C391.178,225.119 383.482,244.719 368.558,257.143C386.992,261.449 401.072,269.781 410.917,281.885C423.427,297.267 429.982,320.052 429.982,350.406L429.982,403.689C429.982,438.332 419.946,463.769 400.562,480.266C381.531,496.463 351.867,504.923 311.374,504.923ZM311.374,498.673C349.985,498.673 378.364,490.95 396.512,475.506C414.659,460.062 423.732,436.123 423.732,403.689L423.732,350.406C423.732,321.834 417.844,300.308 406.068,285.829C394.291,271.35 375.855,262.952 350.757,260.635C373.538,250.982 384.928,230.132 384.928,198.085L384.928,170.285C384.928,139.782 375.855,117.388 357.707,103.102C339.56,88.816 311.567,81.673 273.728,81.673L88.974,81.673C75.074,81.673 68.124,88.623 68.124,102.523L68.124,477.823C68.124,491.723 75.074,498.673 88.974,498.673L311.374,498.673ZM198.437,180.131L247.666,180.131C262.338,180.131 269.674,187.853 269.674,203.298L269.674,219.514C269.674,234.959 262.338,242.681 247.666,242.681L198.437,242.681L198.437,180.131ZM204.687,186.381L204.687,236.431L247.666,236.431C252.941,236.431 257.003,235.361 259.641,232.585C262.379,229.702 263.424,225.28 263.424,219.514L263.424,203.298C263.424,197.532 262.379,193.11 259.641,190.227C257.003,187.451 252.941,186.381 247.666,186.381L204.687,186.381ZM198.437,331.873L273.728,331.873C288.4,331.873 295.737,339.402 295.737,354.46L295.737,377.048C295.737,392.492 288.4,400.214 273.728,400.214L198.437,400.214L198.437,331.873ZM204.687,338.123L204.687,393.964L273.728,393.964C279.003,393.964 283.066,392.894 285.703,390.118C288.442,387.235 289.487,382.813 289.487,377.048L289.487,354.46C289.487,348.914 288.46,344.654 285.758,341.881C283.108,339.161 279.028,338.123 273.728,338.123L204.687,338.123Z" style="fill:white;"/>
    </g>
    <g transform="matrix(1.14565,0,0,1.14578,-54.2618,-70.7231)">
        <path d="M417.624,224.737C433.551,229.797 444.137,239.117 452.494,251.227C462.19,265.279 466.361,285.053 466.361,310.635L466.396,357.997C466.396,390.28 458.267,414.124 439.119,429.728L372.576,485.817C354.802,500.81 327.316,508.58 289.966,508.58L103.302,508.58C93.722,508.58 87.595,505.97 82.804,501.253C77.989,496.512 75.332,489.487 75.332,480.005L75.375,146.413C75.375,136.102 78.568,128.575 84.432,123.626L84.459,123.603L150.885,67.49L150.945,67.441C155.497,63.774 162.056,61.725 170.746,61.725L323.426,61.725C361.465,61.725 395.305,69.143 412.875,83.412C430.821,97.985 438.355,120.292 438.355,150.532L438.355,175.242C438.355,197.446 428.195,213.443 417.624,224.737ZM357.41,438.63C390.805,438.63 414.552,431.235 430.248,418.081C445.64,405.182 452.197,385.086 452.197,357.997L452.197,310.635C452.197,286.646 447.413,268.508 437.371,256.351C427.471,244.365 413.615,235.561 392.516,233.643C390.275,233.439 388.462,231.735 388.121,229.512C387.779,227.288 388.998,225.119 391.074,224.252C409.889,216.402 424.151,201.305 424.151,175.242L424.151,150.532C424.151,125.223 417.638,106.536 402.347,94.682C386.627,82.497 356.204,76.661 323.426,76.661L172.935,76.661C168.223,76.661 164.61,77.567 162.254,79.887C159.922,82.183 159.009,85.708 159.009,90.3L159.009,424.925C159.009,429.516 159.922,433.042 162.254,435.337C164.61,437.657 168.223,438.563 172.935,438.563L357.41,438.63ZM261.57,284.903L329.536,284.903C337.744,284.903 343.813,287.228 347.916,291.375C352.003,295.505 354.298,301.615 354.298,309.875L354.298,329.952C354.298,338.363 352.017,343.716 347.96,347.921C343.846,352.185 337.763,354.566 329.536,354.566L261.57,354.566C258.866,354.566 256.675,352.375 256.675,349.672L256.675,289.798C256.675,287.095 258.866,284.903 261.57,284.903ZM261.57,145.661L301.645,145.661C309.872,145.661 317.444,148.243 321.547,152.517C326.557,157.736 326.787,165.681 326.787,165.681C326.787,165.681 326.407,176.464 326.407,179.875L326.407,194.29C326.407,202.701 323.909,207.272 319.992,211.608C316.554,215.413 305.16,215.019 305.16,215.019L262.426,214.856C262.426,214.856 259.644,215.171 257.767,212.667C256.264,210.664 256.675,207.965 256.675,207.965L256.675,150.556C256.675,147.853 258.866,145.661 261.57,145.661Z"/>
    </g>
    <g transform="matrix(1,0,0,1,-16.1113,0)">
        <path d="M199.325,57.184L199.325,375.943L390.074,375.943C390.074,375.943 410.01,372.521 417.811,355.469C424.697,340.415 423.818,328.537 423.818,328.537L423.818,263.687C423.818,263.687 420.389,238.629 406.251,227.497C392.112,216.365 359.552,216.341 359.552,216.341L199.325,216.341" style="fill:none;stroke:black;stroke-width:15.83px;"/>
    </g>
    <g transform="matrix(1,0,0,1,-16.1113,0)">
        <path d="M199.325,56.184L331.603,55.934C331.603,55.934 362.979,55.601 380.991,76.633C394.15,92.001 391.783,118.114 391.783,118.114L391.783,154.532C391.783,154.532 391.427,173.496 376.077,190.252C356.105,212.052 317.704,216.103 317.704,216.103" style="fill:none;stroke:black;stroke-width:15.83px;"/>
    </g>
</svg>
